<svg width="73" height="72" viewBox="0 0 73 72" fill="none" xmlns="http://www.w3.org/2000/svg">
<path d="M36.3477 71.857C56.1133 71.857 72.1366 55.8338 72.1366 36.0682C72.1366 16.3025 56.1133 0.279297 36.3477 0.279297C16.5821 0.279297 0.558838 16.3025 0.558838 36.0682C0.558838 55.8338 16.5821 71.857 36.3477 71.857Z" fill="#334D5C"/>
<g clip-path="url(#clip0_365_13986)">
<path d="M49.5237 16.1309H37.5896C37.5896 17.0724 36.8263 17.8357 35.8848 17.8357C34.9433 17.8357 34.1799 17.0724 34.1799 16.1309H22.2457C20.8333 16.1309 19.6884 17.2758 19.6884 18.6882V54.4906C19.6884 55.903 20.8333 57.048 22.2457 57.048H49.5237C50.9361 57.048 52.0811 55.903 52.0811 54.4906V18.6882C52.0811 17.2758 50.9361 16.1309 49.5237 16.1309Z" fill="#9B735A"/>
<path d="M51.2286 43.4089C50.9408 43.4089 50.658 43.4286 50.3761 43.452V18.6882C50.3761 18.2174 49.9944 17.8357 49.5236 17.8357H45.2614C44.7907 17.8357 44.4089 17.454 44.4089 16.9832V16.1309H37.5894C37.5894 17.0724 36.8261 17.8357 35.8845 17.8357C34.943 17.8357 34.1797 17.0724 34.1797 16.1309H27.3603V16.9833C27.3603 17.4541 26.9786 17.8358 26.5079 17.8358H22.2457C21.7749 17.8358 21.3932 18.2175 21.3932 18.6883V54.4907C21.3932 54.9615 21.7749 55.3432 22.2457 55.3432H41.1483C41.2497 55.9294 41.3996 56.4991 41.594 57.0481H49.5238C50.9362 57.0481 52.0811 55.9031 52.0811 54.4907V43.452C51.7992 43.4286 51.5164 43.4089 51.2286 43.4089Z" fill="#8C5F50"/>
<path d="M47.819 53.6386H23.9507C23.48 53.6386 23.0983 53.2569 23.0983 52.7861V20.3935C23.0983 19.9227 23.48 19.541 23.9507 19.541H47.819C48.2897 19.541 48.6714 19.9227 48.6714 20.3935V52.7861C48.6714 53.257 48.2897 53.6386 47.819 53.6386Z" fill="#F1F4FB"/>
<path d="M48.6714 52.7857V43.7441C44.2619 44.8813 40.9995 48.8734 40.9995 53.6382H47.819C48.2897 53.6381 48.6714 53.2565 48.6714 52.7857Z" fill="#E4EAF8"/>
<path d="M40.9993 14.4256H38.8216C38.231 13.4107 37.1435 12.7207 35.8847 12.7207C34.6259 12.7207 33.5385 13.4107 32.9479 14.4256H30.77C29.8285 14.4256 29.0652 15.1888 29.0652 16.1304V19.5401C29.0652 20.0109 29.4469 20.3926 29.9177 20.3926H41.8518C42.3225 20.3926 42.7043 20.0109 42.7043 19.5401V16.1304C42.7043 15.1888 41.9408 14.4256 40.9993 14.4256ZM35.8847 17.4091C35.1785 17.4091 34.6061 16.8366 34.6061 16.1305C34.6061 15.4244 35.1786 14.8519 35.8847 14.8519C36.5908 14.8519 37.1633 15.4244 37.1633 16.1305C37.1633 16.8366 36.5908 17.4091 35.8847 17.4091Z" fill="#FFF082"/>
<path d="M29.9177 20.3925H41.8518C42.3225 20.3925 42.7043 20.0107 42.7043 19.54C42.7043 19.0692 42.3225 18.6875 41.8518 18.6875H29.9177C29.4469 18.6875 29.0652 19.0692 29.0652 19.54C29.0652 20.0108 29.4469 20.3925 29.9177 20.3925Z" fill="#FFDC64"/>
<path d="M51.2286 62.1621C55.9365 62.1621 59.753 58.3456 59.753 53.6377C59.753 48.9298 55.9365 45.1133 51.2286 45.1133C46.5207 45.1133 42.7042 48.9298 42.7042 53.6377C42.7042 58.3456 46.5207 62.1621 51.2286 62.1621Z" fill="#B4E66E"/>
<path d="M55.4908 60.4573C50.7829 60.4573 46.9664 56.6408 46.9664 51.9329C46.9664 49.169 48.2877 46.7196 50.3266 45.1621C46.043 45.6129 42.7042 49.2347 42.7042 53.6378C42.7042 58.3458 46.5207 62.1622 51.2286 62.1622C53.1726 62.1622 54.9586 61.5041 56.3928 60.4087C56.0963 60.4398 55.7956 60.4573 55.4908 60.4573Z" fill="#A0D755"/>
<path d="M49.5237 57.9004C49.3056 57.9004 49.0874 57.8172 48.921 57.6507L45.5113 54.241C45.1784 53.908 45.1784 53.3685 45.5113 53.0356C45.8443 52.7026 46.3838 52.7026 46.7167 53.0356L49.5237 55.8427L54.8881 50.4782C55.221 50.1453 55.7606 50.1453 56.0935 50.4782C56.4265 50.8112 56.4265 51.3507 56.0935 51.6837L50.1265 57.6507C49.96 57.8172 49.7418 57.9004 49.5237 57.9004Z" fill="white"/>
<path d="M32.4749 29.5579V26.4429C33.5325 26.6395 34.1797 27.1673 34.1797 27.5588C34.1797 28.03 34.561 28.4113 35.0322 28.4113C35.5035 28.4113 35.8847 28.0301 35.8847 27.5588C35.8847 26.1301 34.4428 24.9742 32.475 24.712V24.6552C32.475 24.1841 32.0937 23.8027 31.6225 23.8027C31.1514 23.8027 30.77 24.184 30.77 24.6552V24.712C28.8021 24.9742 27.3602 26.1301 27.3602 27.5588C27.3602 29.5814 29.2284 30.363 30.7699 30.8342V33.9492C29.7123 33.7526 29.0651 33.2249 29.0651 32.8333C29.0651 32.3622 28.6838 31.9808 28.2126 31.9808C27.7414 31.9808 27.3601 32.3621 27.3601 32.8333C27.3601 34.262 28.802 35.418 30.7698 35.6802V35.7369C30.7698 36.2081 31.1511 36.5894 31.6223 36.5894C32.0934 36.5894 32.4748 36.2082 32.4748 35.7369V35.6802C34.4426 35.4181 35.8845 34.262 35.8845 32.8333C35.8846 30.8108 34.0164 30.0291 32.4749 29.5579ZM29.0651 27.5588C29.0651 27.1673 29.7123 26.6394 30.7699 26.4429V29.0301C29.5139 28.5821 29.0651 28.1756 29.0651 27.5588ZM32.4749 33.9492V31.3621C33.7309 31.81 34.1797 32.2166 34.1797 32.8332C34.1797 33.2249 33.5324 33.7526 32.4749 33.9492Z" fill="#A0D755"/>
<path d="M43.5563 27.2128H39.2941C38.823 27.2128 38.4417 26.8315 38.4417 26.3603C38.4417 25.8891 38.8229 25.5078 39.2941 25.5078H43.5563C44.0275 25.5078 44.4088 25.8891 44.4088 26.3603C44.4088 26.8315 44.0276 27.2128 43.5563 27.2128Z" fill="#A0D755"/>
<path d="M41.852 30.6229H39.2946C38.8235 30.6229 38.4421 30.2417 38.4421 29.7704C38.4421 29.2993 38.8234 28.918 39.2946 28.918H41.852C42.3231 28.918 42.7044 29.2992 42.7044 29.7704C42.7044 30.2417 42.3231 30.6229 41.852 30.6229Z" fill="#959CB5"/>
<path d="M43.5568 34.0311H39.2946C38.8235 34.0311 38.4421 33.6499 38.4421 33.1787C38.4421 32.7075 38.8234 32.3262 39.2946 32.3262H43.5568C44.028 32.3262 44.4093 32.7074 44.4093 33.1787C44.4093 33.6499 44.0281 34.0311 43.5568 34.0311Z" fill="#959CB5"/>
<path d="M29.9177 41.703H28.2128C27.7417 41.703 27.3604 41.3218 27.3604 40.8505C27.3604 40.3794 27.7416 39.998 28.2128 39.998H29.9177C30.3888 39.998 30.7702 40.3793 30.7702 40.8505C30.7701 41.3218 30.3888 41.703 29.9177 41.703Z" fill="#B4E66E"/>
<path d="M29.9177 48.5233H28.2128C27.7417 48.5233 27.3604 48.1421 27.3604 47.6708C27.3604 47.1996 27.7416 46.8184 28.2128 46.8184H29.9177C30.3888 46.8184 30.7702 47.1996 30.7702 47.6708C30.7702 48.1421 30.3888 48.5233 29.9177 48.5233Z" fill="#B4E66E"/>
<path d="M29.9177 45.1132H28.2128C27.7417 45.1132 27.3604 44.7319 27.3604 44.2607C27.3604 43.7895 27.7416 43.4082 28.2128 43.4082H29.9177C30.3888 43.4082 30.7702 43.7894 30.7702 44.2607C30.7701 44.7319 30.3888 45.1132 29.9177 45.1132Z" fill="#B4E66E"/>
<path d="M43.5568 41.703H33.3276C32.8564 41.703 32.4751 41.3218 32.4751 40.8505C32.4751 40.3794 32.8563 39.998 33.3276 39.998H43.5568C44.028 39.998 44.4093 40.3793 44.4093 40.8505C44.4093 41.3218 44.0281 41.703 43.5568 41.703Z" fill="#959CB5"/>
<path d="M40.9997 48.5233H33.3278C32.8567 48.5233 32.4753 48.1421 32.4753 47.6708C32.4753 47.1996 32.8566 46.8184 33.3278 46.8184H40.9997C41.4709 46.8184 41.8522 47.1996 41.8522 47.6708C41.8522 48.1421 41.471 48.5233 40.9997 48.5233Z" fill="#959CB5"/>
<path d="M43.5571 45.1132H33.3278C32.8567 45.1132 32.4753 44.7319 32.4753 44.2607C32.4753 43.7895 32.8566 43.4082 33.3278 43.4082H43.5571C44.0282 43.4082 44.4096 43.7894 44.4096 44.2607C44.4096 44.7319 44.0283 45.1132 43.5571 45.1132Z" fill="#959CB5"/>
</g>
<defs>
<clipPath id="clip0_365_13986">
<rect width="49.4414" height="49.4414" fill="white" transform="translate(15 12.7207)"/>
</clipPath>
</defs>
</svg>
