<svg width="73" height="73" viewBox="0 0 73 73" fill="none" xmlns="http://www.w3.org/2000/svg">
<path d="M36.3477 72.3765C56.1133 72.3765 72.1366 56.3533 72.1366 36.5877C72.1366 16.822 56.1133 0.798828 36.3477 0.798828C16.5821 0.798828 0.558838 16.822 0.558838 36.5877C0.558838 56.3533 16.5821 72.3765 36.3477 72.3765Z" fill="#334D5C"/>
<path d="M35.611 9.03906C35.611 9.03906 58.3165 11.6289 63.6295 37.0576H49.4552C49.4552 37.0576 48.7443 22.4136 35.611 23.2134V9.03906Z" fill="white"/>
<path d="M63.6677 37.0903H49.4236V37.0586C49.4236 37.0396 49.3347 35.2939 48.6873 33.0659C48.0969 31.0156 46.8972 28.1338 44.5676 26.0454C42.2507 23.9697 39.2356 23.0239 35.6174 23.2461H35.5857V9.00195L35.6238 9.0083C35.6809 9.01465 41.3811 9.7002 47.6526 13.4897C51.3342 15.7114 54.4954 18.5552 57.0408 21.9385C60.2209 26.166 62.4553 31.2505 63.6677 37.0522V37.0903ZM49.4807 37.0269H63.5852C62.3728 31.2505 60.1511 26.1851 56.9773 21.9766C54.4382 18.5996 51.2834 15.7622 47.6018 13.5469C41.5969 9.92236 36.1252 9.14795 35.6365 9.07812V23.1826C39.261 22.9668 42.2761 23.9189 44.5994 26.001C46.9417 28.1021 48.1477 30.9966 48.738 33.0532C49.3474 35.1226 49.468 36.7856 49.4807 37.0269Z" fill="black"/>
<path d="M35.6114 12.9863C22.3195 12.9863 11.5475 23.7583 11.5475 37.0503C11.5475 50.3423 22.3195 61.1143 35.6114 61.1143C48.9034 61.1143 59.6754 50.3423 59.6754 37.0503C59.6754 23.7583 48.9034 12.9863 35.6114 12.9863ZM28.6671 49.0347C27.9879 48.6411 27.3405 48.1904 26.7438 47.689L28.6671 49.0347ZM26.7438 47.6826C23.7032 45.1436 21.7672 41.3223 21.7672 37.0503C21.7672 29.4077 27.9625 23.2061 35.6114 23.2061C43.254 23.2124 49.4557 29.4077 49.4557 37.0566C49.4557 44.7056 43.2604 50.9009 35.6114 50.9009C33.0787 50.9009 30.7111 50.2217 28.6671 49.0347" fill="#B7CD02"/>
<path d="M35.6107 61.6289C32.2909 61.6289 29.0726 60.9814 26.0448 59.6992C23.1185 58.4614 20.4906 56.6904 18.2308 54.4307C15.9711 52.1709 14.2001 49.543 12.9623 46.6167C11.6801 43.5889 11.0326 40.3706 11.0326 37.0508C11.0326 33.731 11.6801 30.5127 12.9623 27.4849C14.2001 24.5586 15.9711 21.9307 18.2308 19.6709C20.4906 17.4111 23.1185 15.6401 26.0448 14.4023C29.0726 13.1201 32.2909 12.4727 35.6107 12.4727C38.9305 12.4727 42.1488 13.1201 45.1766 14.4023C48.1029 15.6401 50.7308 17.4111 52.9906 19.6709C55.2504 21.9307 57.0214 24.5586 58.2592 27.4849C59.5414 30.5127 60.1888 33.731 60.1888 37.0508C60.1888 40.3706 59.5414 43.5889 58.2592 46.6167C57.0214 49.543 55.2504 52.1709 52.9906 54.4307C50.7308 56.6904 48.1029 58.4614 45.1766 59.6992C42.1488 60.9814 38.9305 61.6289 35.6107 61.6289ZM35.6107 13.4946C32.4305 13.4946 29.3456 14.1167 26.4384 15.3481C23.6327 16.5352 21.1127 18.2363 18.9481 20.3945C16.7836 22.5591 15.0887 25.0791 13.9017 27.8848C12.6703 30.792 12.0482 33.877 12.0482 37.0571C12.0482 40.2373 12.6703 43.3223 13.9017 46.2295C15.0887 49.0352 16.7899 51.5552 18.9481 53.7197C21.1127 55.8843 23.6327 57.5791 26.4384 58.7661C29.3456 59.9976 32.4305 60.6196 35.6107 60.6196C38.7909 60.6196 41.8759 59.9976 44.7831 58.7661C47.5887 57.5791 50.1088 55.8779 52.2733 53.7197C54.4379 51.5552 56.1327 49.0352 57.3197 46.2295C58.5511 43.3223 59.1732 40.2373 59.1732 37.0571C59.1732 33.877 58.5511 30.792 57.3197 27.8848C56.1327 25.0791 54.4315 22.5591 52.2733 20.3945C50.1088 18.23 47.5887 16.5352 44.7831 15.3481C41.8759 14.1167 38.7909 13.4946 35.6107 13.4946ZM35.6107 51.4028C33.078 51.4028 30.5897 50.7363 28.4125 49.4668C27.7142 49.0605 27.0414 48.5908 26.4193 48.0703C23.1439 45.3345 21.2587 41.3164 21.2587 37.0508C21.2587 33.2168 22.7504 29.6113 25.4608 26.9009C28.1713 24.1904 31.7767 22.6987 35.6107 22.6987C39.4447 22.6987 43.0502 24.1904 45.7606 26.9009C48.4711 29.6113 49.9628 33.2168 49.9628 37.0508C49.9628 40.8848 48.4711 44.4902 45.7606 47.2007C43.0502 49.9111 39.4447 51.4028 35.6107 51.4028ZM28.9203 48.5972C30.9452 49.7715 33.2557 50.3936 35.6107 50.3936C42.9613 50.3936 48.9471 44.4141 48.9471 37.0571C48.9471 29.7002 42.9677 23.7207 35.6107 23.7207C28.2601 23.7207 22.2743 29.7002 22.2743 37.0571C22.2743 41.0244 24.0199 44.7568 27.0668 47.2959C27.6508 47.7783 28.2728 48.2163 28.9203 48.5972Z" fill="#0A0408"/>
<path d="M35.6114 23.2129V4.83008C27.5626 4.83008 20.2057 7.78174 14.5626 12.6567L26.5724 26.5771C28.9972 24.4824 32.152 23.2129 35.6114 23.2129Z" fill="white"/>
<path d="M26.5149 27.2881L13.845 12.606L14.2322 12.2759C17.1394 9.76221 20.4338 7.80078 24.0076 6.44238C27.7083 5.03955 31.6184 4.32227 35.6111 4.32227H36.1189V23.7207H35.6111C32.4119 23.7207 29.3206 24.8696 26.9021 26.958L26.5149 27.2881ZM15.2795 12.7139L26.6292 25.8662C29.0413 23.9302 32.012 22.8257 35.1033 22.7178V5.34424C31.4089 5.40137 27.7971 6.08691 24.3694 7.38818C21.0559 8.64502 18.0027 10.4351 15.2795 12.7139Z" fill="#0A0408"/>
<path d="M33.097 20.8887V8.19336C27.5365 8.19336 22.4584 10.231 18.5546 13.6016L26.851 23.2183C28.5267 21.7646 30.7103 20.8887 33.097 20.8887Z" fill="#DC444A"/>
<path d="M63.566 37.1201C63.566 21.6445 51.0231 9.10156 35.5475 9.10156L63.566 37.1201Z" fill="white"/>
<path d="M64.0739 37.1201H63.0582C63.0582 36.9551 63.0582 36.7837 63.0519 36.6187L64.0675 36.5996C64.0739 36.771 64.0739 36.9424 64.0739 37.1201ZM63.0201 35.6411C63.0011 35.3174 62.9821 34.9873 62.9503 34.6636L63.9596 34.5747C63.9913 34.9111 64.0104 35.2539 64.0294 35.5903L63.0201 35.6411ZM62.8424 33.686C62.8043 33.3623 62.7535 33.0386 62.7028 32.7148L63.7057 32.5562C63.7565 32.8926 63.8073 33.229 63.8517 33.5654L62.8424 33.686ZM62.5314 31.7437C62.4679 31.4263 62.3981 31.1025 62.3219 30.7852L63.3121 30.5503C63.3883 30.8804 63.4645 31.2168 63.528 31.5469L62.5314 31.7437ZM62.0807 29.833C61.9918 29.5156 61.903 29.2046 61.8014 28.8936L62.7726 28.5889C62.8741 28.9126 62.9694 29.2363 63.0582 29.5664L62.0807 29.833ZM61.4967 27.9604C61.3888 27.6558 61.2745 27.3447 61.1539 27.04L62.0997 26.6655C62.2267 26.9829 62.3473 27.3003 62.4552 27.624L61.4967 27.9604ZM60.7731 26.1323C60.6398 25.834 60.5065 25.5293 60.3668 25.2373L61.2809 24.7993C61.4269 25.104 61.5665 25.415 61.7062 25.7261L60.7731 26.1323ZM59.9225 24.355C59.7701 24.0693 59.6115 23.7773 59.4528 23.4917L60.3351 22.9902C60.5065 23.2822 60.6652 23.5869 60.8239 23.8853L59.9225 24.355ZM58.9513 22.6475C58.7799 22.3682 58.6022 22.0952 58.4181 21.8223L59.2623 21.2573C59.4528 21.5366 59.6368 21.8286 59.8146 22.1143L58.9513 22.6475ZM57.8531 21.0161C57.6627 20.7495 57.4659 20.4893 57.2628 20.229L58.0626 19.6069C58.2721 19.8735 58.4752 20.1465 58.672 20.4194L57.8531 21.0161ZM56.6471 19.4673C56.4376 19.2197 56.2218 18.9658 56.006 18.7246L56.7614 18.0454C56.9899 18.293 57.212 18.5532 57.4279 18.8135L56.6471 19.4673ZM55.3331 18.0073C55.1046 17.7725 54.8761 17.5376 54.6412 17.3154L55.3458 16.5854C55.587 16.8203 55.8282 17.0615 56.0631 17.3027L55.3331 18.0073ZM53.924 16.6489C53.6827 16.4331 53.4352 16.2173 53.1813 16.0078L53.8351 15.2271C54.0953 15.4429 54.3556 15.665 54.6031 15.8936L53.924 16.6489ZM52.4196 15.3857C52.1657 15.189 51.899 14.9858 51.6324 14.7954L52.2291 13.9702C52.5021 14.167 52.775 14.3701 53.0416 14.5796L52.4196 15.3857ZM50.8263 14.2432C50.5533 14.0654 50.2804 13.8813 50.0011 13.71L50.5343 12.8467C50.8199 13.0244 51.1119 13.2085 51.3912 13.3989L50.8263 14.2432ZM49.1632 13.2085C48.8839 13.0498 48.5919 12.8911 48.3063 12.7388L48.776 11.8374C49.0743 11.9961 49.3727 12.1611 49.6647 12.3262L49.1632 13.2085ZM47.424 12.3008C47.132 12.1611 46.8336 12.0215 46.5353 11.8945L46.9415 10.9614C47.2526 11.0947 47.5636 11.2407 47.8619 11.3867L47.424 12.3008ZM45.6339 11.5137C45.3292 11.3931 45.0245 11.2788 44.7199 11.1709L45.0563 10.2124C45.3737 10.3267 45.691 10.4409 46.0084 10.5679L45.6339 11.5137ZM43.7867 10.8662C43.4757 10.771 43.1583 10.6758 42.8473 10.5869L43.1139 9.60938C43.4376 9.69824 43.7677 9.79346 44.0914 9.89502L43.7867 10.8662ZM41.8951 10.3457C41.5778 10.2695 41.254 10.1997 40.9366 10.1362L41.1334 9.13965C41.4635 9.20312 41.7999 9.2793 42.13 9.35547L41.8951 10.3457ZM39.9655 9.96484C39.6417 9.91406 39.318 9.86328 38.9943 9.8252L39.1212 8.81592C39.4576 8.86035 39.7941 8.90479 40.1305 8.96191L39.9655 9.96484ZM38.0231 9.71729C37.6993 9.68555 37.3693 9.6665 37.0455 9.64746L37.1027 8.63184C37.4391 8.65088 37.7819 8.67627 38.1183 8.70166L38.0231 9.71729ZM36.0489 9.61572C35.8839 9.61572 35.7189 9.60938 35.5475 9.60938V8.59375C35.7189 8.59375 35.8966 8.59375 36.0616 8.6001L36.0489 9.61572Z" fill="#0A0408"/>
<path d="M35.611 9.03906V23.2134C43.2535 23.2134 49.4552 29.4087 49.4552 37.0576H63.6295" fill="white"/>
<path d="M63.6295 37.5654H48.9474V37.0576C48.9474 29.707 42.9679 23.7212 35.611 23.7212H35.1031V9.03906H36.1188V22.7119C39.7623 22.8389 43.1647 24.3179 45.7609 26.9077C48.3571 29.4976 49.8297 32.9062 49.9567 36.5498H63.6295V37.5654Z" fill="#0A0408"/>
<path d="M63.661 38.5166H63.5975C62.8041 38.5166 62.163 37.8755 62.163 37.082V37.0186C62.163 36.2251 62.8041 35.584 63.5975 35.584H63.661C64.4545 35.584 65.0956 36.2251 65.0956 37.0186V37.082C65.0892 37.8755 64.4481 38.5166 63.661 38.5166Z" fill="#DC444A"/>
<path d="M63.661 39.0244H63.5975C62.5311 39.0244 61.6552 38.1548 61.6552 37.082V37.0186C61.6552 35.9522 62.5248 35.0762 63.5975 35.0762H63.661C64.7274 35.0762 65.6034 35.9458 65.6034 37.0186V37.082C65.597 38.1548 64.7274 39.0244 63.661 39.0244ZM63.5975 36.0981C63.0897 36.0981 62.6708 36.5107 62.6708 37.0249V37.0884C62.6708 37.5962 63.0834 38.0151 63.5975 38.0151H63.661C64.1688 38.0151 64.5878 37.6025 64.5878 37.0884V37.0249C64.5878 36.5171 64.1752 36.0981 63.661 36.0981H63.5975Z" fill="#0A0408"/>
<path d="M35.6432 10.499H35.5797C34.7863 10.499 34.1451 9.85791 34.1451 9.06445V9.00098C34.1451 8.20752 34.7863 7.56641 35.5797 7.56641H35.6432C36.4366 7.56641 37.0778 8.20752 37.0778 9.00098V9.06445C37.0714 9.85791 36.4303 10.499 35.6432 10.499Z" fill="#DC444A"/>
<path d="M35.6432 11.0068H35.5797C34.5133 11.0068 33.6373 10.1372 33.6373 9.06445V9.00098C33.6373 7.93457 34.507 7.05859 35.5797 7.05859H35.6432C36.7096 7.05859 37.5856 7.92822 37.5856 9.00098V9.06445C37.5792 10.1372 36.7096 11.0068 35.6432 11.0068ZM35.5797 8.08691C35.0719 8.08691 34.653 8.49951 34.653 9.01367V9.07715C34.653 9.58496 35.0656 10.0039 35.5797 10.0039H35.6432C36.151 10.0039 36.5699 9.59131 36.5699 9.07715V9.01367C36.5699 8.50586 36.1574 8.08691 35.6432 8.08691H35.5797Z" fill="#0A0408"/>
</svg>
