<svg width="73" height="73" viewBox="0 0 73 73" fill="none" xmlns="http://www.w3.org/2000/svg">
<path d="M36.3477 72.0972C56.1133 72.0972 72.1366 56.074 72.1366 36.3084C72.1366 16.5427 56.1133 0.519531 36.3477 0.519531C16.5821 0.519531 0.558838 16.5427 0.558838 36.3084C0.558838 56.074 16.5821 72.0972 36.3477 72.0972Z" fill="#334D5C"/>
<g clip-path="url(#clip0_403_4408)">
<path d="M49.5237 16.3711H37.5896C37.5896 17.3126 36.8263 18.076 35.8848 18.076C34.9433 18.076 34.1799 17.3126 34.1799 16.3711H22.2457C20.8333 16.3711 19.6884 17.5161 19.6884 18.9284V54.7309C19.6884 56.1432 20.8333 57.2882 22.2457 57.2882H49.5237C50.9361 57.2882 52.0811 56.1432 52.0811 54.7309V18.9284C52.0811 17.5161 50.9361 16.3711 49.5237 16.3711Z" fill="#9B735A"/>
<path d="M51.2286 43.6491C50.9408 43.6491 50.658 43.6688 50.3761 43.6922V18.9284C50.3761 18.4577 49.9944 18.076 49.5236 18.076H45.2614C44.7907 18.076 44.4089 17.6942 44.4089 17.2235V16.3711H37.5894C37.5894 17.3126 36.8261 18.076 35.8845 18.076C34.943 18.076 34.1797 17.3126 34.1797 16.3711H27.3603V17.2236C27.3603 17.6943 26.9786 18.076 26.5079 18.076H22.2457C21.7749 18.076 21.3932 18.4578 21.3932 18.9285V54.731C21.3932 55.2017 21.7749 55.5834 22.2457 55.5834H41.1483C41.2497 56.1696 41.3996 56.7393 41.594 57.2883H49.5238C50.9362 57.2883 52.0811 56.1433 52.0811 54.731V43.6922C51.7992 43.6688 51.5164 43.6491 51.2286 43.6491Z" fill="#8C5F50"/>
<path d="M47.819 53.8788H23.9507C23.48 53.8788 23.0983 53.4971 23.0983 53.0263V20.6337C23.0983 20.163 23.48 19.7812 23.9507 19.7812H47.819C48.2897 19.7812 48.6714 20.163 48.6714 20.6337V53.0263C48.6714 53.4972 48.2897 53.8788 47.819 53.8788Z" fill="#F1F4FB"/>
<path d="M48.6714 53.026V43.9844C44.2619 45.1215 40.9995 49.1136 40.9995 53.8784H47.819C48.2897 53.8784 48.6714 53.4967 48.6714 53.026Z" fill="#E4EAF8"/>
<path d="M40.9993 14.6658H38.8216C38.231 13.6509 37.1435 12.9609 35.8847 12.9609C34.6259 12.9609 33.5385 13.6509 32.9479 14.6658H30.77C29.8285 14.6658 29.0652 15.429 29.0652 16.3707V19.7804C29.0652 20.2511 29.4469 20.6329 29.9177 20.6329H41.8518C42.3225 20.6329 42.7043 20.2511 42.7043 19.7804V16.3707C42.7043 15.429 41.9408 14.6658 40.9993 14.6658ZM35.8847 17.6494C35.1785 17.6494 34.6061 17.0768 34.6061 16.3708C34.6061 15.6647 35.1786 15.0921 35.8847 15.0921C36.5908 15.0921 37.1633 15.6647 37.1633 16.3708C37.1633 17.0768 36.5908 17.6494 35.8847 17.6494Z" fill="#FFF082"/>
<path d="M29.9177 20.6327H41.8518C42.3225 20.6327 42.7043 20.251 42.7043 19.7802C42.7043 19.3095 42.3225 18.9277 41.8518 18.9277H29.9177C29.4469 18.9277 29.0652 19.3095 29.0652 19.7802C29.0652 20.2511 29.4469 20.6327 29.9177 20.6327Z" fill="#FFDC64"/>
<path d="M51.2286 62.4023C55.9365 62.4023 59.753 58.5858 59.753 53.8779C59.753 49.17 55.9365 45.3535 51.2286 45.3535C46.5207 45.3535 42.7042 49.17 42.7042 53.8779C42.7042 58.5858 46.5207 62.4023 51.2286 62.4023Z" fill="#B4E66E"/>
<path d="M55.4908 60.6975C50.7829 60.6975 46.9664 56.8811 46.9664 52.1731C46.9664 49.4092 48.2877 46.9598 50.3266 45.4023C46.043 45.8531 42.7042 49.4749 42.7042 53.8781C42.7042 58.586 46.5207 62.4025 51.2286 62.4025C53.1726 62.4025 54.9586 61.7444 56.3928 60.6489C56.0963 60.68 55.7956 60.6975 55.4908 60.6975Z" fill="#A0D755"/>
<path d="M49.5237 58.1407C49.3056 58.1407 49.0874 58.0574 48.921 57.8909L45.5113 54.4812C45.1784 54.1483 45.1784 53.6088 45.5113 53.2758C45.8443 52.9428 46.3838 52.9428 46.7167 53.2758L49.5237 56.083L54.8881 50.7185C55.221 50.3855 55.7606 50.3855 56.0935 50.7185C56.4265 51.0514 56.4265 51.5909 56.0935 51.9239L50.1265 57.8909C49.96 58.0574 49.7418 58.1407 49.5237 58.1407Z" fill="white"/>
<path d="M32.4749 29.7982V26.6832C33.5325 26.8798 34.1797 27.4075 34.1797 27.7991C34.1797 28.2702 34.561 28.6515 35.0322 28.6515C35.5035 28.6515 35.8847 28.2703 35.8847 27.7991C35.8847 26.3704 34.4428 25.2144 32.475 24.9522V24.8954C32.475 24.4243 32.0937 24.043 31.6225 24.043C31.1514 24.043 30.77 24.4242 30.77 24.8954V24.9522C28.8021 25.2144 27.3602 26.3704 27.3602 27.7991C27.3602 29.8216 29.2284 30.6032 30.7699 31.0745V34.1895C29.7123 33.9929 29.0651 33.4651 29.0651 33.0736C29.0651 32.6024 28.6838 32.2211 28.2126 32.2211C27.7414 32.2211 27.3601 32.6023 27.3601 33.0736C27.3601 34.5022 28.802 35.6582 30.7698 35.9204V35.9772C30.7698 36.4483 31.1511 36.8297 31.6223 36.8297C32.0934 36.8297 32.4748 36.4484 32.4748 35.9772V35.9204C34.4426 35.6583 35.8845 34.5022 35.8845 33.0736C35.8846 31.051 34.0164 30.2693 32.4749 29.7982ZM29.0651 27.7991C29.0651 27.4075 29.7123 26.8797 30.7699 26.6832V29.2703C29.5139 28.8224 29.0651 28.4158 29.0651 27.7991ZM32.4749 34.1895V31.6023C33.7309 32.0503 34.1797 32.4568 34.1797 33.0735C34.1797 33.4651 33.5324 33.9929 32.4749 34.1895Z" fill="#A0D755"/>
<path d="M43.5563 27.453H39.2941C38.823 27.453 38.4417 27.0718 38.4417 26.6005C38.4417 26.1293 38.8229 25.748 39.2941 25.748H43.5563C44.0275 25.748 44.4088 26.1293 44.4088 26.6005C44.4088 27.0718 44.0276 27.453 43.5563 27.453Z" fill="#A0D755"/>
<path d="M41.852 30.8632H39.2946C38.8235 30.8632 38.4421 30.4819 38.4421 30.0107C38.4421 29.5395 38.8234 29.1582 39.2946 29.1582H41.852C42.3231 29.1582 42.7044 29.5394 42.7044 30.0107C42.7044 30.4819 42.3231 30.8632 41.852 30.8632Z" fill="#959CB5"/>
<path d="M43.5568 34.2714H39.2946C38.8235 34.2714 38.4421 33.8901 38.4421 33.4189C38.4421 32.9477 38.8234 32.5664 39.2946 32.5664H43.5568C44.028 32.5664 44.4093 32.9476 44.4093 33.4189C44.4093 33.8901 44.0281 34.2714 43.5568 34.2714Z" fill="#959CB5"/>
<path d="M29.9177 41.9432H28.2128C27.7417 41.9432 27.3604 41.562 27.3604 41.0908C27.3604 40.6196 27.7416 40.2383 28.2128 40.2383H29.9177C30.3888 40.2383 30.7702 40.6195 30.7702 41.0908C30.7701 41.562 30.3888 41.9432 29.9177 41.9432Z" fill="#B4E66E"/>
<path d="M29.9177 48.7636H28.2128C27.7417 48.7636 27.3604 48.3823 27.3604 47.9111C27.3604 47.4398 27.7416 47.0586 28.2128 47.0586H29.9177C30.3888 47.0586 30.7702 47.4398 30.7702 47.9111C30.7702 48.3823 30.3888 48.7636 29.9177 48.7636Z" fill="#B4E66E"/>
<path d="M29.9177 45.3534H28.2128C27.7417 45.3534 27.3604 44.9722 27.3604 44.5009C27.3604 44.0298 27.7416 43.6484 28.2128 43.6484H29.9177C30.3888 43.6484 30.7702 44.0297 30.7702 44.5009C30.7701 44.9722 30.3888 45.3534 29.9177 45.3534Z" fill="#B4E66E"/>
<path d="M43.5568 41.9432H33.3276C32.8564 41.9432 32.4751 41.562 32.4751 41.0908C32.4751 40.6196 32.8563 40.2383 33.3276 40.2383H43.5568C44.028 40.2383 44.4093 40.6195 44.4093 41.0908C44.4093 41.562 44.0281 41.9432 43.5568 41.9432Z" fill="#959CB5"/>
<path d="M40.9997 48.7636H33.3278C32.8567 48.7636 32.4753 48.3823 32.4753 47.9111C32.4753 47.4398 32.8566 47.0586 33.3278 47.0586H40.9997C41.4709 47.0586 41.8522 47.4398 41.8522 47.9111C41.8522 48.3823 41.471 48.7636 40.9997 48.7636Z" fill="#959CB5"/>
<path d="M43.5571 45.3534H33.3278C32.8567 45.3534 32.4753 44.9722 32.4753 44.5009C32.4753 44.0298 32.8566 43.6484 33.3278 43.6484H43.5571C44.0282 43.6484 44.4096 44.0297 44.4096 44.5009C44.4096 44.9722 44.0283 45.3534 43.5571 45.3534Z" fill="#959CB5"/>
</g>
<defs>
<clipPath id="clip0_403_4408">
<rect width="49.4414" height="49.4414" fill="white" transform="translate(15 12.9609)"/>
</clipPath>
</defs>
</svg>
