<svg width="73" height="72" viewBox="0 0 73 72" fill="none" xmlns="http://www.w3.org/2000/svg">
<path d="M36.3477 71.6168C56.1133 71.6168 72.1366 55.5936 72.1366 35.8279C72.1366 16.0623 56.1133 0.0390625 36.3477 0.0390625C16.5821 0.0390625 0.558838 16.0623 0.558838 35.8279C0.558838 55.5936 16.5821 71.6168 36.3477 71.6168Z" fill="#334D5C"/>
<path d="M37.5231 11.8335C37.5231 9.68595 37.5288 7.53916 37.5167 5.39166C37.5167 5.08852 37.5946 5.03752 37.8935 5.04815C40.7238 5.14766 43.527 5.63453 46.225 6.49516C50.7467 7.93721 54.7244 10.3029 58.1822 13.5517C58.3947 13.7529 58.3947 13.8591 58.1822 14.0688C55.1304 17.1059 52.0848 20.1496 49.0454 23.1999C48.8761 23.3699 48.789 23.4124 48.58 23.2254C45.983 20.8598 42.9471 19.4021 39.4723 18.8525C38.9372 18.7658 38.3975 18.7104 37.856 18.6868C37.5649 18.6754 37.5125 18.572 37.5132 18.3107C37.5266 16.154 37.5196 13.9923 37.5231 11.8335Z" fill="#B7CD02"/>
<path d="M36.0035 11.8393C36.0035 13.9988 35.9993 16.1598 36.0092 18.3172C36.0092 18.5899 35.9341 18.665 35.655 18.6834C31.5824 18.9568 28.0257 20.4574 24.9848 23.1852C24.749 23.3977 24.6477 23.3757 24.4373 23.1646C21.4097 20.1209 18.3735 17.0857 15.3289 14.059C15.1072 13.838 15.139 13.7424 15.3459 13.5491C19.7301 9.44104 24.8661 6.7935 30.7537 5.60642C32.3981 5.28988 34.0644 5.10044 35.7379 5.0398C36.0262 5.02705 36 5.18146 36 5.36348C36 7.52326 36 9.68256 36 11.8414L36.0035 11.8393Z" fill="#FEDD01"/>
<path d="M12.3462 35.8769H6.00856C5.54959 35.8769 5.54747 35.8769 5.56305 35.3967C5.73658 29.9727 7.18076 24.9191 9.96925 20.2558C11.0709 18.425 12.3521 16.7083 13.794 15.1314C13.9675 14.9402 14.0624 14.8984 14.2735 15.1102C17.3195 18.1718 20.3736 21.2259 23.4358 24.2725C23.6164 24.4517 23.6312 24.543 23.4577 24.7442C21.1268 27.4413 19.7513 30.5691 19.2923 34.1005C19.2327 34.5683 19.2003 35.0392 19.1953 35.5107C19.1953 35.7905 19.1294 35.8896 18.8256 35.8875C16.666 35.8734 14.5051 35.8797 12.3462 35.8797V35.8769Z" fill="#FC0101"/>
<path d="M61.1421 35.8792C58.9938 35.8792 56.8456 35.8735 54.6967 35.8863C54.4191 35.8863 54.3426 35.8154 54.3348 35.5392C54.1648 31.4723 52.7482 27.8905 50.1099 24.7932C49.9229 24.5736 49.8925 24.466 50.1177 24.2422C53.1657 21.2145 56.2042 18.1777 59.2332 15.1316C59.4401 14.9241 59.5371 14.9134 59.7404 15.1372C63.7152 19.5066 66.2927 24.5779 67.4202 30.3808C67.7496 32.075 67.9089 33.7876 67.9741 35.5109C67.9854 35.7942 67.9309 35.8912 67.62 35.8891C65.4611 35.8728 63.3016 35.8799 61.1421 35.8792Z" fill="#028F01"/>
<path d="M36.6826 38.3107C36.1932 38.0742 35.8157 38.4524 35.4077 38.7456C34.8411 39.15 34.2702 39.546 33.7078 39.9589C33.5449 40.0793 33.4727 40.0694 33.3678 39.8881C32.8083 38.9324 32.2398 37.9821 31.6623 37.0372C31.5469 36.8488 31.5993 36.7908 31.7728 36.7072C32.5682 36.324 33.3544 35.9238 34.1484 35.5392C34.2334 35.5043 34.3098 35.4512 34.3722 35.3837C34.4346 35.3162 34.4815 35.2358 34.5096 35.1483C34.9494 33.9102 36.2257 33.2827 37.4766 33.6814C37.5623 33.7118 37.6536 33.7235 37.7442 33.7157C37.8349 33.7079 37.9228 33.6807 38.0021 33.6361C42.0912 31.6057 46.1825 29.5819 50.2759 27.5647L50.4345 27.4868C50.5804 27.4195 50.7384 27.2906 50.8595 27.5059C50.9806 27.7213 50.7816 27.7963 50.6562 27.8856C46.942 30.5298 43.2264 33.1741 39.5093 35.8183C39.2749 35.9855 39.1184 36.1526 39.0525 36.4699C38.8273 37.5713 37.8739 38.3072 36.6826 38.3107ZM35.2618 35.9281C35.2593 36.223 35.3442 36.512 35.5057 36.7588C35.6672 37.0055 35.8982 37.1989 36.1695 37.3146C36.4407 37.4303 36.7402 37.4631 37.0301 37.4089C37.32 37.3547 37.5873 37.2159 37.7984 37.01C38.0096 36.8041 38.155 36.5403 38.2165 36.2519C38.2779 35.9634 38.2526 35.6632 38.1437 35.3892C38.0349 35.1151 37.8473 34.8794 37.6047 34.7117C37.362 34.5441 37.0752 34.452 36.7803 34.4471C36.5827 34.4421 36.3861 34.4767 36.202 34.5488C36.018 34.621 35.8503 34.7293 35.7087 34.8674C35.5672 35.0054 35.4548 35.1703 35.378 35.3525C35.3012 35.5347 35.2617 35.7304 35.2618 35.9281Z" fill="#030303"/>
<path d="M35.262 35.9297C35.2727 35.539 35.436 35.1681 35.7169 34.8965C35.9978 34.6248 36.374 34.4741 36.7648 34.4766C37.1556 34.4791 37.5298 34.6346 37.8072 34.9099C38.0847 35.1851 38.2432 35.5581 38.2488 35.9488C38.2517 36.1476 38.2149 36.3449 38.1405 36.5292C38.0661 36.7136 37.9557 36.8812 37.8157 37.0223C37.6757 37.1635 37.509 37.2752 37.3252 37.3511C37.1415 37.4269 36.9444 37.4653 36.7457 37.4641C36.5469 37.4628 36.3504 37.4218 36.1676 37.3437C35.9849 37.2655 35.8196 37.1516 35.6814 37.0087C35.5432 36.8658 35.4349 36.6967 35.3629 36.5114C35.2909 36.3262 35.2566 36.1284 35.262 35.9297Z" fill="#FDFDFD"/>
<path d="M31.84 47.5401V48.9481H26.624V52.5801H31.328V53.9561H26.624V57.5881H31.84V58.9961H25.152V47.5401H31.84ZM36.3532 54.3561V58.9961H34.8812V47.5401H38.7852C39.7772 47.5401 40.6199 47.8708 41.3132 48.5321C42.0172 49.1934 42.3692 49.9988 42.3692 50.9481C42.3692 51.9188 42.0172 52.7294 41.3132 53.3801C40.6306 54.0308 39.7879 54.3561 38.7852 54.3561H36.3532ZM36.3532 48.9481V52.9481H38.8172C39.4039 52.9481 39.8892 52.7508 40.2732 52.3561C40.6679 51.9614 40.8652 51.4921 40.8652 50.9481C40.8652 50.4148 40.6679 49.9508 40.2732 49.5561C39.8892 49.1508 39.4039 48.9481 38.8172 48.9481H36.3532ZM46.4418 58.9961H44.9698V47.5401H46.4418V58.9961Z" fill="white"/>
</svg>
