<svg width="73" height="72" viewBox="0 0 73 72" fill="none" xmlns="http://www.w3.org/2000/svg">
<path d="M36.3477 71.857C56.1133 71.857 72.1366 55.8338 72.1366 36.0682C72.1366 16.3025 56.1133 0.279297 36.3477 0.279297C16.5821 0.279297 0.558838 16.3025 0.558838 36.0682C0.558838 55.8338 16.5821 71.857 36.3477 71.857Z" fill="#334D5C"/>
<path d="M22.8635 31.436C18.8377 30.792 16.0866 26.9938 16.7299 22.9675C17.3731 18.9424 21.1711 16.1903 25.1973 16.8343C29.2219 17.4774 31.9743 21.2761 31.3307 25.3016C30.6871 29.3283 26.8885 32.0792 22.8635 31.436Z" fill="#FEDD01"/>
<path d="M45.7526 53.485L45.7348 53.4993C45.1303 52.3634 44.7857 51.0687 44.7857 49.6937C44.7857 47.4504 45.7001 45.4171 47.1755 43.9447C47.5231 44.0407 47.9637 44.1031 48.4277 44.1689L48.4348 44.1699C49.4321 44.3098 50.6724 44.4845 51.0032 45.0268C51.1143 45.2098 51.117 45.4444 51.0066 45.7591C50.8158 46.3899 50.1355 46.5965 49.3474 46.8359C48.2462 47.1705 46.8756 47.5873 46.9881 49.4959C47.0424 50.1795 47.5935 50.8158 48.1775 51.4893C49.0688 52.5184 49.6237 53.2485 49.2248 53.995C49.0627 54.3074 48.769 54.4887 48.3518 54.5322C47.4356 54.6293 46.2251 54.0587 45.7526 53.485Z" fill="#028F01"/>
<path d="M54.4567 44.6427C54.7161 43.7975 55.0247 42.7801 54.6328 41.7554C57.5879 42.396 59.9481 44.6484 60.7437 47.5431C60.3914 47.5401 60.025 47.544 59.643 47.5488C58.026 47.5675 56.1925 47.5875 54.9775 47.0203C53.9374 46.5118 54.0743 45.8899 54.4567 44.6427Z" fill="#028F01"/>
<path d="M57.0742 56.6665C56.7638 56.2805 56.643 55.7357 56.6913 55.2445L56.6916 55.2408C56.7321 54.8246 56.7778 54.3538 56.6157 53.8152C56.3431 53.0334 55.5766 52.5409 54.8352 52.0651C54.2324 51.6796 53.6645 51.3146 53.5149 50.8875C53.4079 50.5588 53.4957 50.4523 53.5249 50.4168C53.9327 49.9344 55.9875 50.2406 57.4913 50.4648L57.4987 50.4659C58.9893 50.6889 60.2908 50.8826 60.9801 50.628C60.6846 53.1935 59.191 55.3976 57.0742 56.6665Z" fill="#028F01"/>
<path d="M53.0078 49.9797C52.768 50.2635 52.7219 50.639 52.8731 51.1035C53.1026 51.7584 53.7974 52.2038 54.4694 52.6345L54.4726 52.6366C55.1165 53.0496 55.7817 53.4763 55.9717 54.0229C56.0916 54.4213 56.0555 54.7894 56.0173 55.1785C55.9616 55.7508 55.9004 56.3975 56.4662 56.9976C55.391 57.523 54.1851 57.8189 52.9104 57.8189C50.4151 57.8189 48.1792 56.6873 46.6877 54.9099C47.1532 55.0998 47.6608 55.2197 48.1418 55.2197C48.2366 55.2197 48.33 55.2154 48.4222 55.2059C49.0701 55.1377 49.5551 54.8274 49.8241 54.3107C50.469 53.1026 49.5258 52.0129 48.6928 51.0504L48.6891 51.0461C48.2024 50.485 47.6991 49.9045 47.6627 49.4486C47.5862 48.1463 48.3281 47.8537 49.5443 47.4838C50.3944 47.2257 51.3587 46.9324 51.6498 45.9703C51.825 45.4735 51.8015 45.0376 51.5807 44.6752C51.0844 43.8591 49.7265 43.6674 48.5288 43.4997L48.502 43.4959C48.2529 43.4607 48.0117 43.4266 47.7953 43.3885C49.1928 42.2526 50.9733 41.5698 52.9106 41.5698C53.2161 41.5698 53.5169 41.5885 53.8128 41.6215C54.3886 42.5472 54.0957 43.5111 53.8097 44.444C53.4648 45.5687 53.0737 46.8435 54.6859 47.6312C55.81 48.1559 57.3124 48.2323 58.7539 48.2323C58.9845 48.2323 59.2134 48.23 59.439 48.2278C59.5101 48.2271 59.5809 48.2264 59.6513 48.2258C60.0889 48.2206 60.5056 48.2167 60.8993 48.2228C60.9871 48.7009 61.0354 49.1919 61.0354 49.6943C61.0354 49.7789 61.0328 49.8633 61.0297 49.9467C60.5116 50.1462 58.8447 49.9828 57.5982 49.7964L57.5965 49.7961C55.572 49.4938 53.6599 49.2082 53.0078 49.9797Z" fill="#5F96FF"/>
<path d="M39.8382 47.3215C39.8556 47.3758 39.846 47.4353 39.8126 47.4823C39.7791 47.5287 39.7261 47.5575 39.6687 47.5597L37.8109 47.6149C37.8018 47.6149 37.7923 47.6149 37.784 47.6139C37.6949 47.6031 37.6245 47.5292 37.6223 47.4371C37.6193 47.3354 37.6988 47.2507 37.8005 47.2476L39.1447 47.2081C37.446 46.6314 36.7989 45.176 36.1713 43.7646C35.6259 42.5356 35.0607 41.2644 33.7929 40.5722C33.1449 40.191 32.4672 39.9573 31.8125 39.7318C30.1407 39.1563 28.561 38.6127 28.7652 35.7358L29.1318 35.7624C28.9476 38.3562 30.2638 38.8096 31.9299 39.3835L31.9318 39.3842L31.9366 39.3858C32.6084 39.6173 33.3014 39.8562 33.9743 40.2524C35.3462 41.0012 35.9368 42.3297 36.5072 43.6151C37.1337 45.0261 37.7297 46.3629 39.3141 46.8749L38.9083 45.572C38.8779 45.4756 38.9322 45.3722 39.0286 45.3417C39.1256 45.3117 39.2286 45.3661 39.2585 45.4625L39.8382 47.3215Z" fill="white"/>
<path fill-rule="evenodd" clip-rule="evenodd" d="M52.9104 40.8932C48.0571 40.8932 44.1086 44.8417 44.1086 49.6943C44.1086 54.5476 48.0571 58.4961 52.9104 58.4961C57.7638 58.4961 61.7118 54.5476 61.7118 49.6943C61.7119 44.8412 57.7638 40.8932 52.9104 40.8932ZM54.4567 44.6427C54.7161 43.7975 55.0247 42.7801 54.6328 41.7554C57.5879 42.396 59.9481 44.6484 60.7437 47.5431C60.3914 47.5401 60.025 47.544 59.643 47.5488C58.026 47.5675 56.1925 47.5875 54.9775 47.0203C53.9374 46.5118 54.0743 45.8899 54.4567 44.6427ZM45.7526 53.485L45.7348 53.4993C45.1303 52.3634 44.7857 51.0687 44.7857 49.6937C44.7857 47.4504 45.7001 45.4171 47.1755 43.9447C47.5231 44.0407 47.9637 44.1031 48.4277 44.1689L48.4348 44.1699C49.4321 44.3098 50.6724 44.4845 51.0032 45.0268C51.1143 45.2098 51.117 45.4444 51.0066 45.7591C50.8158 46.3899 50.1355 46.5965 49.3474 46.8359C48.2462 47.1705 46.8756 47.5873 46.9881 49.4959C47.0424 50.1795 47.5935 50.8158 48.1775 51.4893C49.0688 52.5184 49.6237 53.2485 49.2248 53.995C49.0627 54.3074 48.769 54.4887 48.3518 54.5322C47.4356 54.6293 46.2251 54.0587 45.7526 53.485ZM57.0742 56.6665C56.7638 56.2805 56.643 55.7357 56.6913 55.2445L56.6916 55.2408C56.7321 54.8246 56.7778 54.3538 56.6157 53.8152C56.3431 53.0334 55.5766 52.5409 54.8352 52.0651C54.2324 51.6796 53.6645 51.3146 53.5149 50.8875C53.4079 50.5588 53.4957 50.4523 53.5249 50.4168C53.9327 49.9344 55.9875 50.2406 57.4913 50.4648L57.4987 50.4659C58.9893 50.6889 60.2908 50.8826 60.9801 50.628C60.6846 53.1935 59.191 55.3976 57.0742 56.6665ZM57.5982 49.7964L57.5965 49.7961C55.572 49.4938 53.6599 49.2082 53.0078 49.9797C52.768 50.2635 52.7219 50.639 52.8731 51.1035C53.1026 51.7584 53.7974 52.2038 54.4694 52.6345L54.4726 52.6366C55.1165 53.0496 55.7817 53.4763 55.9717 54.0229C56.0916 54.4213 56.0555 54.7894 56.0173 55.1785C55.9616 55.7508 55.9004 56.3975 56.4662 56.9976C55.391 57.523 54.1851 57.8189 52.9104 57.8189C50.4151 57.8189 48.1792 56.6873 46.6877 54.9099C47.1532 55.0998 47.6608 55.2197 48.1418 55.2197C48.2366 55.2197 48.33 55.2154 48.4222 55.2059C49.0701 55.1377 49.5551 54.8274 49.8241 54.3107C50.469 53.1026 49.5258 52.0129 48.6928 51.0504L48.6891 51.0461C48.2024 50.485 47.6991 49.9045 47.6627 49.4486C47.5862 48.1463 48.3281 47.8537 49.5443 47.4838C50.3944 47.2257 51.3587 46.9324 51.6498 45.9703C51.825 45.4735 51.8015 45.0376 51.5807 44.6752C51.0844 43.8591 49.7265 43.6674 48.5288 43.4997L48.502 43.4959C48.2529 43.4607 48.0117 43.4266 47.7953 43.3885C49.1928 42.2526 50.9733 41.5698 52.9106 41.5698C53.2161 41.5698 53.5169 41.5885 53.8128 41.6215C54.3886 42.5472 54.0957 43.5111 53.8097 44.444C53.4648 45.5687 53.0737 46.8435 54.6859 47.6312C55.81 48.1559 57.3124 48.2323 58.7539 48.2323C58.9845 48.2323 59.2134 48.23 59.439 48.2278L59.6513 48.2258C60.0889 48.2206 60.5056 48.2167 60.8993 48.2228C60.9871 48.7009 61.0354 49.1919 61.0354 49.6943C61.0354 49.7789 61.0328 49.8633 61.0297 49.9467C60.5116 50.1462 58.8447 49.9828 57.5982 49.7964ZM33.0159 25.5705C33.8074 20.6168 30.421 15.9412 25.4668 15.149C20.5128 14.3576 15.8373 17.7438 15.0457 22.6976C14.2535 27.653 17.6403 32.3291 22.5942 33.1205C27.548 33.9126 32.2236 30.526 33.0159 25.5705ZM22.8635 31.436C18.8377 30.792 16.0866 26.9938 16.7299 22.9675C17.3731 18.9424 21.1711 16.1903 25.1973 16.8343C29.2219 17.4774 31.9743 21.2761 31.3307 25.3016C30.6871 29.3283 26.8885 32.0792 22.8635 31.436ZM13.4124 19.1054H13.4106C13.3679 19.0989 13.3247 19.0854 13.2839 19.0641L11.1019 17.9486C10.944 17.8687 10.8594 17.7031 10.87 17.5383C10.8741 17.4823 10.8891 17.4272 10.9163 17.375C11.0228 17.1655 11.2803 17.0829 11.4895 17.1894L13.6737 18.3054C13.8823 18.4127 13.966 18.6701 13.8582 18.8795C13.7729 19.0475 13.5906 19.1336 13.4124 19.1054ZM17.1585 11.5059C17.0518 11.2968 17.135 11.0392 17.346 10.9327C17.5559 10.8261 17.814 10.9087 17.9205 11.12L19.0306 13.3064C19.1372 13.5162 19.0539 13.773 18.8429 13.8796C18.7601 13.9222 18.6684 13.9348 18.5835 13.9208C18.4535 13.9004 18.3347 13.8196 18.2702 13.6927L18.2689 13.6914L17.1585 11.5059ZM32.1076 15.9595C31.9416 15.7922 31.9425 15.5223 32.1094 15.3558L33.8439 13.6241C34.0108 13.4572 34.2822 13.4585 34.4478 13.6258C34.6138 13.7919 34.6129 14.0617 34.4456 14.2286L32.711 15.9599C32.6103 16.0602 32.4724 16.0998 32.3424 16.0785C32.2554 16.0651 32.1743 16.026 32.1076 15.9595ZM35.3229 22.2443C35.2859 22.0109 35.4456 21.7932 35.6775 21.7571L38.0988 21.3755C38.3327 21.3386 38.5504 21.4994 38.5873 21.7314C38.6225 21.9639 38.4644 22.1825 38.2306 22.219L35.8091 22.6001C35.7641 22.6075 35.7187 22.6071 35.6762 22.6001C35.4986 22.5711 35.3517 22.4312 35.3229 22.2443ZM22.6284 35.8208L22.2414 38.2413C22.2045 38.4743 21.9863 38.6325 21.7528 38.5952C21.5204 38.5582 21.3617 38.3392 21.3985 38.1062L21.7857 35.6862C21.8231 35.4532 22.0406 35.295 22.2746 35.3328C22.3319 35.3416 22.3858 35.3619 22.4338 35.3915C22.5748 35.4796 22.656 35.6466 22.6284 35.8208ZM15.9796 32.1369C16.0624 32.2195 16.1044 32.3298 16.1035 32.4394C16.1035 32.5481 16.062 32.6581 15.9779 32.7406L14.2432 34.471C14.143 34.5719 14.0047 34.611 13.8751 34.5905C13.788 34.5762 13.706 34.5371 13.6394 34.4702C13.5565 34.3868 13.5146 34.2777 13.5157 34.1681C13.5157 34.1138 13.5263 34.0595 13.5481 34.0078C13.5677 33.9566 13.5999 33.9087 13.6415 33.867L15.3761 32.1352C15.5444 31.9684 15.8141 31.9705 15.9796 32.1369ZM12.7659 25.8526C12.8013 26.0846 12.6429 26.3037 12.4093 26.3398L9.98814 26.72C9.94317 26.727 9.89773 26.727 9.85517 26.7197C9.6776 26.6915 9.5288 26.5523 9.49994 26.3651C9.491 26.3064 9.49519 26.2494 9.50888 26.1951C9.54817 26.0343 9.68207 25.904 9.85657 25.8771L12.2777 25.4964C12.5117 25.4597 12.7304 25.6204 12.7659 25.8526ZM25.4588 12.2769V12.2751L25.8453 9.85542C25.8827 9.62207 26.1004 9.46387 26.3345 9.50168C26.5676 9.53855 26.7251 9.75718 26.6882 9.99016L26.3008 12.4121C26.2638 12.6446 26.0456 12.8033 25.8121 12.7658C25.5803 12.7284 25.4215 12.5098 25.4588 12.2769Z" fill="black"/>
<path d="M44.16 42.9218C44.1809 42.9752 44.1757 43.0353 44.1457 43.0844C44.1157 43.133 44.0649 43.1656 44.0075 43.1712L42.1588 43.3591C42.1449 43.3604 42.131 43.3604 42.118 43.3586C42.0342 43.3486 41.9654 43.2817 41.9572 43.1947C41.9468 43.0935 42.0201 43.0035 42.121 42.9936L43.4173 42.8619C43.1831 42.6968 42.9174 42.584 42.6403 42.4665L42.6359 42.4646C42.1371 42.2534 41.6208 42.0349 41.2631 41.4903C41.0463 41.164 40.9589 40.8415 40.8677 40.499L40.863 40.4817C40.8205 40.3243 40.7759 40.1588 40.7147 39.9853C40.4836 39.3265 40.2831 39.2922 39.7486 39.1996C39.5643 39.1683 39.3553 39.1318 39.1042 39.0636C37.837 38.7168 37.6779 38.1936 37.494 37.5873C37.3972 37.2657 37.2864 36.9015 36.9791 36.4926C36.6266 36.0298 36.1233 35.9172 35.5906 35.7986C34.9457 35.6544 34.2795 35.5056 33.908 34.7196C33.7172 34.3285 33.6174 33.9552 33.5303 33.6266C33.3095 32.7926 33.1983 32.3742 31.8939 32.5384L31.8476 32.1734C33.4705 31.9704 33.6633 32.6936 33.8858 33.5323L33.8876 33.5392C33.9704 33.85 34.0642 34.2021 34.2391 34.5602C34.535 35.1864 35.0616 35.3037 35.671 35.4397L35.6723 35.44C36.218 35.5624 36.8377 35.7014 37.2719 36.2706C37.6192 36.733 37.7452 37.148 37.846 37.4814L37.8464 37.4828C38.0179 38.0452 38.1312 38.4168 39.2006 38.7094C39.4333 38.772 39.632 38.8068 39.8072 38.8374L39.8108 38.838C40.3818 38.9367 40.7586 39.0019 41.0623 39.8637C41.128 40.052 41.1761 40.2306 41.2219 40.401L41.2227 40.4039C41.31 40.7298 41.3857 41.0106 41.5699 41.2878C41.8659 41.7389 42.308 41.9264 42.7754 42.1248L42.7794 42.1265C43.0649 42.2474 43.3561 42.3721 43.6233 42.559L43.1074 41.2435C43.0706 41.1492 43.1174 41.0424 43.2117 41.0058C43.3061 40.968 43.413 41.0154 43.4499 41.1092L44.16 42.9218Z" fill="white"/>
<path fill-rule="evenodd" clip-rule="evenodd" d="M35.1321 29.4768L35 29.1244L35.0854 29.0918C35.1004 29.0862 35.4379 28.961 35.8076 29.0057C35.9927 29.0274 36.1559 29.0883 36.293 29.1853C36.582 29.3925 36.7406 29.748 36.7649 30.2434H36.7701L36.7762 30.336C36.7666 30.804 36.8736 31.1208 37.0934 31.2781C37.179 31.3389 37.2837 31.3768 37.4058 31.3911C37.5748 31.4111 37.7414 31.3819 37.8374 31.3594L37.8496 31.3542C37.8852 31.3407 38.2112 31.2242 38.5714 31.2681C38.7565 31.2898 38.9199 31.3507 39.0568 31.4477C39.3462 31.6546 39.5044 32.0105 39.5287 32.5054H39.534L39.54 32.5988C39.5304 33.0659 39.6379 33.3832 39.8581 33.5405C39.9428 33.6013 40.048 33.6392 40.1702 33.6535C40.3392 33.6735 40.5061 33.6443 40.6022 33.6217L40.6131 33.6165C40.6347 33.6086 40.9694 33.4863 41.3354 33.5305C41.5204 33.5522 41.6843 33.6131 41.8212 33.71C42.1105 33.9173 42.2688 34.2732 42.2931 34.7699H42.2979L42.3036 34.8612C42.2954 35.3293 42.4014 35.646 42.6217 35.8029C42.7073 35.8637 42.8121 35.9016 42.9341 35.9154C43.1032 35.9354 43.2696 35.9063 43.3656 35.8838L43.377 35.8789C43.3967 35.8717 43.7322 35.7486 44.0993 35.7929C44.2844 35.8146 44.4477 35.8755 44.5847 35.9724C44.8741 36.1797 45.0371 36.5356 45.0618 37.031L45.0679 37.1235C45.0588 37.5911 45.1653 37.908 45.3856 38.0653C45.4703 38.1261 45.5759 38.164 45.6976 38.1778C45.8659 38.1978 46.0323 38.1691 46.1287 38.1461L46.1413 38.1408C46.1774 38.1277 46.5034 38.0109 46.8628 38.0543C47.0482 38.076 47.2117 38.1369 47.3486 38.2343C47.638 38.4416 47.7967 38.7975 47.821 39.2947H47.8254L47.8313 39.3855C47.8292 39.5119 47.8383 39.6237 47.854 39.7262L48.1585 38.482C48.1825 38.3838 48.2819 38.323 48.3806 38.3469C48.4793 38.3712 48.5401 38.4708 48.5154 38.5695L48.0525 40.4599C48.0386 40.5155 48 40.562 47.9473 40.5846C47.8943 40.6076 47.8339 40.6051 47.7839 40.5768L46.1642 39.6655C46.1559 39.6607 46.1481 39.6556 46.1411 39.6503C46.0707 39.595 46.0487 39.4956 46.0938 39.4152C46.1437 39.3266 46.2563 39.2957 46.3445 39.3452L47.5165 40.0049L47.5262 40.0097C47.4901 39.8798 47.4675 39.7363 47.4593 39.5765L47.4549 39.5769L47.4484 39.484C47.4575 39.015 47.3511 38.6974 47.1307 38.5418C46.9325 38.4014 46.5815 38.4144 46.3868 38.4615L46.3759 38.4657C46.3616 38.4711 46.0239 38.5966 45.6532 38.5523C45.4685 38.5302 45.3047 38.4693 45.1677 38.3724L45.1607 38.3672C45.1453 38.356 45.1303 38.345 45.1156 38.3332C44.8587 38.1224 44.7175 37.7796 44.6949 37.3129H44.6905L44.684 37.2216C44.6936 36.7527 44.5867 36.4355 44.3668 36.28C44.2816 36.2195 44.176 36.1813 44.0539 36.1669C43.8849 36.1469 43.7176 36.176 43.6214 36.1995L43.6116 36.2044C43.5908 36.2119 43.2557 36.3343 42.8893 36.2909C42.7046 36.2682 42.5407 36.2078 42.4034 36.111C42.3851 36.0979 42.3668 36.0836 42.3508 36.0705C42.0953 35.861 41.954 35.5195 41.9315 35.0528H41.9271L41.9201 34.9598C41.9297 34.4909 41.8233 34.1736 41.6033 34.0175C41.4043 33.8768 41.0541 33.8903 40.8595 33.9367L40.8468 33.9415C40.8111 33.955 40.4852 34.071 40.1254 34.0275C39.9407 34.0054 39.7769 33.9449 39.6396 33.8481C39.6208 33.8346 39.6034 33.8211 39.5869 33.8077C39.3306 33.5973 39.1897 33.2548 39.1672 32.7877H39.1628L39.1559 32.6964C39.1658 32.2271 39.059 31.9104 38.8391 31.7548C38.7539 31.6943 38.6487 31.6565 38.5262 31.6418C38.3575 31.6218 38.1903 31.6509 38.0947 31.6739L38.0829 31.6787C38.0468 31.6922 37.7214 31.8082 37.3611 31.7652C37.1768 31.7426 37.0131 31.6822 36.8757 31.5853C36.8577 31.5723 36.8405 31.559 36.8243 31.5464L36.8223 31.5449C36.5671 31.3354 36.4259 30.9925 36.4038 30.5254L36.3994 30.5249L36.392 30.4336C36.4019 29.9643 36.2951 29.6475 36.0755 29.4919C35.9899 29.4315 35.8849 29.3936 35.7631 29.3789C35.503 29.3479 35.2527 29.4318 35.2215 29.4422L35.2183 29.4433L35.1321 29.4768Z" fill="white"/>
</svg>
