<svg width="73" height="72" viewBox="0 0 73 72" fill="none" xmlns="http://www.w3.org/2000/svg">
<path d="M36.3477 71.857C56.1133 71.857 72.1366 55.8338 72.1366 36.0682C72.1366 16.3025 56.1133 0.279297 36.3477 0.279297C16.5821 0.279297 0.558838 16.3025 0.558838 36.0682C0.558838 55.8338 16.5821 71.857 36.3477 71.857Z" fill="#334D5C"/>
<path d="M46.5 17.4982C38.6667 15.8316 24.0001 14.4999 24 22.4982C24 32.4999 50 36.4999 49.5 46.4999C49.1 54.4999 34 53.1666 26.5 51.5" stroke="white" stroke-dasharray="4 4"/>
<path d="M34.5446 48.6063C34.5446 56.8483 25.2723 61.9996 25.2723 61.9996C25.2723 61.9996 16 56.8483 16 48.6063C16 46.1471 16.9769 43.7887 18.7158 42.0498C20.4547 40.3109 22.8131 39.334 25.2723 39.334C27.7315 39.334 30.0899 40.3109 31.8288 42.0498C33.5677 43.7887 34.5446 46.1471 34.5446 48.6063Z" fill="url(#paint0_linear_491_4568)"/>
<path d="M26.1815 48.3062V44.7629C27.3844 44.9866 28.1207 45.5868 28.1207 46.0322C28.1207 46.5682 28.5544 47.0019 29.0904 47.0019C29.6264 47.0019 30.0601 46.5683 30.0601 46.0322C30.0601 44.4071 28.4199 43.0922 26.1816 42.794V42.7294C26.1816 42.1935 25.7479 41.7598 25.2119 41.7598C24.676 41.7598 24.2422 42.1934 24.2422 42.7294V42.794C22.0038 43.0922 20.3636 44.4071 20.3636 46.0322C20.3636 48.3329 22.4886 49.2219 24.2421 49.7579V53.3012C23.0391 53.0775 22.3029 52.4773 22.3029 52.0319C22.3029 51.4959 21.8692 51.0622 21.3332 51.0622C20.7973 51.0622 20.3635 51.4958 20.3635 52.0319C20.3635 53.657 22.0037 54.9719 24.242 55.2701V55.3347C24.242 55.8706 24.6757 56.3043 25.2117 56.3043C25.7476 56.3043 26.1814 55.8707 26.1814 55.3347V55.2701C28.4197 54.972 30.0598 53.657 30.0598 52.0319C30.0599 49.7312 27.935 48.8421 26.1815 48.3062ZM22.3029 46.0322C22.3029 45.5868 23.0391 44.9864 24.2421 44.7629V47.7058C22.8134 47.1962 22.3029 46.7338 22.3029 46.0322ZM26.1815 53.3012V50.3583C27.6102 50.8679 28.1207 51.3303 28.1207 52.0317C28.1207 52.4773 27.3843 53.0775 26.1815 53.3012Z" fill="white"/>
<path d="M57.6541 16.2723C57.6541 24.5144 48.3818 29.6656 48.3818 29.6656C48.3818 29.6656 39.1095 24.5144 39.1095 16.2723C39.1095 13.8131 40.0864 11.4547 41.8253 9.7158C43.5642 7.9769 45.9226 7 48.3818 7C50.841 7 53.1994 7.9769 54.9383 9.7158C56.6772 11.4547 57.6541 13.8131 57.6541 16.2723Z" fill="url(#paint1_linear_491_4568)"/>
<path d="M49.291 15.9722V12.4289C50.4939 12.6526 51.2302 13.2529 51.2302 13.6983C51.2302 14.2342 51.6639 14.6679 52.1999 14.6679C52.7359 14.6679 53.1696 14.2343 53.1696 13.6983C53.1696 12.0732 51.5294 10.7583 49.2911 10.46V10.3955C49.2911 9.85954 48.8574 9.42578 48.3214 9.42578C47.7855 9.42578 47.3517 9.85943 47.3517 10.3955V10.46C45.1133 10.7583 43.4731 12.0732 43.4731 13.6983C43.4731 15.9989 45.5981 16.8879 47.3516 17.424V20.9672C46.1486 20.7436 45.4124 20.1433 45.4124 19.6979C45.4124 19.162 44.9787 18.7282 44.4427 18.7282C43.9068 18.7282 43.473 19.1619 43.473 19.6979C43.473 21.323 45.1132 22.6379 47.3515 22.9361V23.0007C47.3515 23.5366 47.7852 23.9704 48.3212 23.9704C48.8571 23.9704 49.2909 23.5367 49.2909 23.0007V22.9361C51.5292 22.638 53.1693 21.323 53.1693 19.6979C53.1694 17.3973 51.0445 16.5081 49.291 15.9722ZM45.4124 13.6983C45.4124 13.2529 46.1486 12.6525 47.3516 12.4289V15.3718C45.9229 14.8622 45.4124 14.3998 45.4124 13.6983ZM49.291 20.9672V18.0243C50.7197 18.5339 51.2302 18.9963 51.2302 19.6978C51.2302 20.1433 50.4938 20.7436 49.291 20.9672Z" fill="white"/>
<defs>
<linearGradient id="paint0_linear_491_4568" x1="25.2723" y1="39.4216" x2="25.2723" y2="61.8698" gradientUnits="userSpaceOnUse">
<stop stop-color="#FF4867"/>
<stop offset="1" stop-color="#E50031"/>
</linearGradient>
<linearGradient id="paint1_linear_491_4568" x1="48.3818" y1="7.08757" x2="48.3818" y2="29.5358" gradientUnits="userSpaceOnUse">
<stop stop-color="#FF4867"/>
<stop offset="1" stop-color="#E50031"/>
</linearGradient>
</defs>
</svg>
