<svg width="73" height="72" viewBox="0 0 73 72" fill="none" xmlns="http://www.w3.org/2000/svg">
<path d="M36.3477 71.6168C56.1133 71.6168 72.1366 55.5936 72.1366 35.8279C72.1366 16.0623 56.1133 0.0390625 36.3477 0.0390625C16.5821 0.0390625 0.558838 16.0623 0.558838 35.8279C0.558838 55.5936 16.5821 71.6168 36.3477 71.6168Z" fill="#334D5C"/>
<path d="M53.9845 31.7852H20.1113L19.453 36.8765L19.4417 36.9737H54.8222L53.9845 31.7852ZM26.9185 36.2103L25.812 36.2011L26.1948 32.6317L27.3016 32.6457L26.9185 36.2103ZM37.1836 36.0028H36.0735V32.508H37.1836V36.0028ZM45.9632 36.2885L45.5785 32.7258L46.6853 32.7129L47.0693 36.2816L45.9632 36.2885Z" fill="#64A4D6"/>
<path d="M26.9185 36.2103L25.812 36.2011L26.1948 32.6317L27.3016 32.6457L26.9185 36.2103Z" fill="black"/>
<path d="M37.1836 36.0028H36.0735V32.508H37.1836V36.0028Z" fill="black"/>
<path d="M45.9632 36.2885L45.5785 32.7258L46.6853 32.7129L47.0693 36.2816L45.9632 36.2885Z" fill="black"/>
<path d="M53.0602 26.0547H20.8494L20.2651 30.575L20.2537 30.6721H53.8045L53.0602 26.0547ZM27.5209 30.1224L26.414 30.1132L26.7965 26.5461L27.9036 26.5578L27.5209 30.1224ZM37.183 30.1202H36.0729V26.6258H37.183V30.1202ZM45.3587 30.2023L44.9763 26.6386L46.0838 26.625L46.4663 30.1944L45.3587 30.2023Z" fill="#64A4D6"/>
<path d="M45.3587 30.2023L44.9763 26.6386L46.0838 26.625L46.4663 30.1944L45.3587 30.2023Z" fill="black"/>
<path d="M37.183 30.1202H36.0729V26.6258H37.183V30.1202Z" fill="black"/>
<path d="M27.5209 30.1224L26.414 30.1132L26.7965 26.5461L27.9036 26.5578L27.5209 30.1224Z" fill="black"/>
<path d="M19.2964 38.084L18.7256 42.5021L18.7142 42.6007H55.7281L55.0009 38.0848L19.2964 38.084ZM26.2217 42.1345L25.1156 42.127L25.4972 38.5576L26.6051 38.5697L26.2217 42.1345ZM37.1829 42.3029H36.0727V38.8062H37.1829V42.3029ZM46.6582 42.216L46.275 38.6518L47.3818 38.6389L47.765 42.2065L46.6582 42.216Z" fill="#64A4D6"/>
<path d="M46.6582 42.216L46.275 38.6518L47.3818 38.6389L47.765 42.2065L46.6582 42.216Z" fill="black"/>
<path d="M37.1829 42.3029H36.0727V38.8062H37.1829V42.3029Z" fill="black"/>
<path d="M26.2217 42.1345L25.1156 42.127L25.4972 38.5576L26.6051 38.5697L26.2217 42.1345Z" fill="black"/>
<path fill-rule="evenodd" clip-rule="evenodd" d="M37.3187 45.4831H59.1797L55.8563 23.0391H17.883L14.5588 45.4831H35.7566V52.7256L27.6436 52.7278V54.2685L45.3139 54.2863V52.7257H37.3187V45.4831ZM15.7668 44.3607L15.7532 44.452L57.9878 44.4518L54.9652 24.0686H18.774L15.7668 44.3607Z" fill="black"/>
<path d="M55.2762 13.1897C53.3882 13.1897 51.8517 14.726 51.8517 16.6142C51.8517 18.5028 53.3882 20.0387 55.2762 20.0387C57.164 20.0387 58.7003 18.5024 58.7003 16.6142C58.7003 14.726 57.164 13.1897 55.2762 13.1897ZM55.2762 19.3967C53.7415 19.3967 52.494 18.1485 52.494 16.6142C52.494 15.0799 53.7415 13.8317 55.2762 13.8317C56.8097 13.8317 58.0584 15.08 58.0584 16.6142C58.0584 18.1488 56.8097 19.3967 55.2762 19.3967ZM49.9941 14.9443C49.9921 14.9232 49.9948 14.902 50.001 14.8808C50.0281 14.7962 50.1193 14.7501 50.2032 14.7775L51.0809 15.0625C51.1651 15.0901 51.2114 15.1808 51.1838 15.2647C51.1621 15.3329 51.0992 15.3758 51.0316 15.3758C51.0156 15.3758 50.9976 15.3735 50.9813 15.368L50.1039 15.083C50.0406 15.0628 49.9993 15.0062 49.9941 14.9443ZM51.9719 12.3295C51.9199 12.2579 51.9356 12.1572 52.0075 12.1051C52.0791 12.053 52.1803 12.0686 52.2319 12.1405L52.7744 12.8868C52.8266 12.9584 52.8104 13.059 52.7391 13.1113C52.7105 13.1321 52.6772 13.1419 52.6449 13.1419C52.5953 13.1419 52.5467 13.119 52.5154 13.0758L51.9719 12.3295ZM57.792 13.0964C57.7208 13.0441 57.7047 12.9435 57.7568 12.8719L58.2985 12.1256C58.3507 12.0533 58.4516 12.038 58.5232 12.0901C58.5944 12.1419 58.6101 12.2425 58.5585 12.3142L58.0164 13.0609C57.9851 13.1039 57.9365 13.127 57.8866 13.127C57.8533 13.127 57.8206 13.117 57.792 13.0964ZM59.3602 15.2409C59.3326 15.1563 59.3789 15.0659 59.4631 15.0387L60.3398 14.7533C60.4249 14.7256 60.5152 14.7724 60.5429 14.8562C60.5698 14.9408 60.5235 15.0312 60.439 15.0584L59.562 15.3441C59.5457 15.3496 59.5287 15.3519 59.5121 15.3519C59.4448 15.352 59.3822 15.3087 59.3602 15.2409ZM60.5509 18.2815C60.5288 18.3493 60.4656 18.3926 60.398 18.3926C60.3816 18.3926 60.3644 18.3902 60.3484 18.3848L59.4707 18.0997C59.3861 18.0724 59.3402 17.9817 59.3672 17.8976C59.3948 17.8134 59.4867 17.7669 59.57 17.7946L60.447 18.0796C60.5323 18.1065 60.5782 18.1973 60.5509 18.2815ZM58.5795 20.8332C58.6311 20.9044 58.6158 21.0053 58.5439 21.0571C58.5158 21.0779 58.4822 21.0879 58.45 21.0879C58.4 21.0879 58.3514 21.0651 58.3201 21.0216L57.7774 20.2756C57.7254 20.2041 57.7415 20.1035 57.813 20.0517C57.8843 19.9999 57.9855 20.0149 58.0372 20.0871L58.5795 20.8332ZM55.128 21.9627V21.0404C55.128 20.9515 55.1995 20.8797 55.2884 20.8797C55.3101 20.8797 55.3317 20.8842 55.3514 20.8924C55.4094 20.9171 55.4493 20.974 55.4493 21.0404V21.9627C55.4493 22.0513 55.378 22.1232 55.2884 22.1232C55.2002 22.1232 55.128 22.0513 55.128 21.9627ZM51.9645 20.9678C51.9615 20.9477 51.9618 20.9265 51.9672 20.9061C51.9718 20.8856 51.9802 20.8658 51.9934 20.8481L52.5352 20.1018C52.5878 20.0299 52.6881 20.0142 52.7596 20.0664C52.795 20.0921 52.8173 20.1304 52.8236 20.1714C52.8302 20.2118 52.8216 20.2553 52.795 20.2906L52.2528 21.0371C52.2216 21.0804 52.1729 21.1032 52.1231 21.1032C52.09 21.1032 52.0578 21.0937 52.0285 21.0727C51.9928 21.0463 51.9705 21.0084 51.9645 20.9678ZM51.192 17.9217C51.2187 18.0063 51.1727 18.0967 51.0882 18.1239L50.2112 18.4094C50.1945 18.4147 50.1778 18.4172 50.1616 18.4172C50.094 18.4172 50.0304 18.3743 50.0087 18.3064C50.0013 18.2849 50.0001 18.2638 50.0013 18.2426C50.0067 18.1804 50.0483 18.1239 50.1119 18.1034L50.9889 17.8184C51.0742 17.7908 51.1651 17.8375 51.192 17.9217ZM55.1023 12.1221V11.1997C55.1023 11.1109 55.1739 11.0391 55.2628 11.0391C55.352 11.0391 55.4233 11.1106 55.4233 11.1997V12.1228C55.4233 12.2115 55.352 12.2834 55.2628 12.2834C55.1746 12.2834 55.1023 12.2112 55.1023 12.1221Z" fill="black"/>
<path d="M55.2762 19.3967C53.7415 19.3967 52.494 18.1485 52.494 16.6142C52.494 15.0799 53.7415 13.8317 55.2762 13.8317C56.8097 13.8317 58.0584 15.08 58.0584 16.6142C58.0584 18.1488 56.8097 19.3967 55.2762 19.3967Z" fill="#FEDD01"/>
</svg>
