<svg width="73" height="73" viewBox="0 0 73 73" fill="none" xmlns="http://www.w3.org/2000/svg">
<g clip-path="url(#clip0_365_13877)">
<path d="M36.3493 72.1363C56.1149 72.1363 72.1381 56.1131 72.1381 36.3475C72.1381 16.5818 56.1149 0.558594 36.3493 0.558594C16.5836 0.558594 0.560425 16.5818 0.560425 36.3475C0.560425 56.1131 16.5836 72.1363 36.3493 72.1363Z" fill="#334D5C"/>
<path opacity="0.1" d="M49.5474 30.1028V37.5297L37.229 25.2113H32.6358V28.1641L20.3173 15.8457H18.8261V19.4249H15.8434V20.9162L18.401 23.4738H16.9992V24.9651L18.8261 26.792V27.5153H15.8434V29.0065L18.3935 31.5567H16.9992V33.0479L18.8261 34.8748V35.6056H15.8434V37.0968L18.3935 39.647H16.9992V41.1383L18.8261 42.965V43.6884H15.8434V45.1797L18.3935 47.73H16.9992V49.2213L18.8261 51.048V51.7787H15.8434V53.27L18.8261 56.2527V56.8567L34.0257 72.0561C34.7946 72.1055 35.5679 72.1394 36.3492 72.1394C52.5511 72.1394 66.2315 61.3711 70.642 46.6035L54.1407 30.1028H49.5474Z" fill="black"/>
<path d="M28.7657 32.9316H24.1758V41.6624H28.7657V32.9316Z" fill="#FCD462"/>
<path d="M37.2276 25.2148H32.6377V30.7126H37.2276V25.2148Z" fill="#44C4A1"/>
<path d="M45.6808 36.7949H41.0909V42.465H45.6808V36.7949Z" fill="#E56353"/>
<path d="M54.136 30.1035H49.5453V35.7793H54.136V30.1035Z" fill="#27A2DB"/>
<path d="M20.3173 55.3622V15.8418H18.8261V19.4279H15.8434V20.9193H18.8261V23.4715H16.9981V24.9628H18.8261V27.515H15.8434V29.0063H18.8261V31.5585H17.3726H16.9981V33.0497H17.3726H18.8261V35.602H15.8434V37.0934H18.8261V39.6455H16.9981V41.1369H18.8261V43.689H15.8434V45.1804H18.8261V47.7326H17.3726H16.9981V49.2239H17.3726H18.8261V51.7761H15.8434V53.2674H18.8261V56.8534H56.855V55.3622H20.3173Z" fill="#EBF0F3"/>
<path d="M28.7692 50.4291V41.6641H24.1788V50.4291V52.616H28.7692V50.4291Z" fill="#F6C358"/>
<path d="M37.225 50.4299V30.7129H32.6346V50.4299V52.6169H37.225V50.4299Z" fill="#3EA69B"/>
<path d="M45.6813 50.4296V42.4629H41.0909V50.4296V52.6166H45.6813V50.4296Z" fill="#D15241"/>
<path d="M54.1373 50.4277V35.7773H49.5469V50.4277V52.6146H54.1373V50.4277Z" fill="#2D93BA"/>
<path d="M51.719 55.35L51.7222 55.3556L51.818 55.2598L51.719 55.35Z" fill="#E56353"/>
<path d="M51.6138 55.2598L51.7096 55.3556L51.7126 55.35L51.6138 55.2598Z" fill="#E56353"/>
<path d="M51.7165 55.3535L51.7113 55.3582L51.7165 55.3633L51.7217 55.3582L51.7165 55.3535Z" fill="#E56353"/>
<path d="M51.7159 55.3626H51.7267L51.7211 55.3574L51.7159 55.3626Z" fill="#3A556A"/>
<path d="M51.7163 55.3528L51.7129 55.3496L51.7097 55.3555L51.7114 55.3572L51.7163 55.3528Z" fill="#2F4859"/>
</g>
<defs>
<clipPath id="clip0_365_13877">
<rect width="71.5809" height="71.5809" fill="white" transform="translate(0.558716 0.558594)"/>
</clipPath>
</defs>
</svg>
