<svg width="73" height="73" viewBox="0 0 73 73" fill="none" xmlns="http://www.w3.org/2000/svg">
<g clip-path="url(#clip0_365_13923)">
<path d="M36.3488 72.3788C56.1151 72.3788 72.1388 56.3551 72.1388 36.5888C72.1388 16.8226 56.1151 0.798828 36.3488 0.798828C16.5826 0.798828 0.558838 16.8226 0.558838 36.5888C0.558838 56.3551 16.5826 72.3788 36.3488 72.3788Z" fill="#334D5C"/>
<path d="M27.4124 16.1035V24.4164H19.0995V60.5033H56.7005V16.1035H27.4124Z" fill="#ACB3BA"/>
<path d="M24.31 57.0736V48.7607H15.9971V12.6738H53.5981V57.0736H24.31Z" fill="white"/>
<path d="M24.31 57.0746L15.9971 48.7617H24.31V57.0746Z" fill="#CED5E0"/>
<path d="M48.0612 30.2207H21.5193V31.8091H48.0612V30.2207Z" fill="#CED5E0"/>
<path d="M48.0612 34.4219H21.5193V36.0102H48.0612V34.4219Z" fill="#CED5E0"/>
<path d="M48.0612 38.6367H21.5193V40.2251H48.0612V38.6367Z" fill="#CED5E0"/>
<path d="M37.3435 42.8535H21.5193V44.4419H37.3435V42.8535Z" fill="#CED5E0"/>
<path d="M25.0375 20.2751C25.0375 21.0173 24.7406 21.4923 24.1617 21.715L25.3344 23.3627H24.0726L23.0483 21.8931H22.3358V23.3627H21.3115V18.7461H23.0632C23.7757 18.7461 24.2953 18.8648 24.5921 19.1024C24.8742 19.3399 25.0375 19.7407 25.0375 20.2751ZM23.7905 20.8243C23.9241 20.7056 23.9835 20.5274 23.9835 20.2751C23.9835 20.0227 23.9241 19.8594 23.7905 19.7704C23.6569 19.6813 23.4343 19.6368 23.0929 19.6368H22.3209V21.0025H23.078C23.4194 20.9876 23.6718 20.9282 23.7905 20.8243Z" fill="#54C0EB"/>
<path d="M29.4166 18.7453V19.6657H27.1157V20.6157H29.1791V21.4915H27.1157V22.4416H29.4908V23.3471H26.0914V18.7305H29.4166V18.7453Z" fill="#54C0EB"/>
<path d="M33.5878 19.1461C33.9144 19.4282 34.0777 19.8438 34.0777 20.4079C34.0777 20.972 33.9144 21.3876 33.573 21.6548C33.2464 21.922 32.7269 22.0556 32.044 22.0556H31.4354V23.3471H30.4111V18.7305H32.044C32.7417 18.7453 33.2613 18.8789 33.5878 19.1461ZM32.8308 20.972C32.9495 20.8384 33.0089 20.6306 33.0089 20.3634C33.0089 20.0962 32.9347 19.9032 32.7714 19.7993C32.6081 19.6805 32.3558 19.636 32.0292 19.636H31.4354V21.1946H32.1331C32.4745 21.1798 32.712 21.1056 32.8308 20.972Z" fill="#54C0EB"/>
<path d="M38.7538 22.724C38.2936 23.1842 37.7147 23.4069 37.0318 23.4069C36.349 23.4069 35.7701 23.1842 35.3099 22.724C34.8497 22.2638 34.6122 21.6998 34.6122 21.0169C34.6122 20.3341 34.8497 19.77 35.3099 19.3098C35.7701 18.8496 36.349 18.627 37.0318 18.627C37.7147 18.627 38.2936 18.8496 38.7538 19.3098C39.214 19.77 39.4515 20.3341 39.4515 21.0169C39.4515 21.6998 39.2288 22.2638 38.7538 22.724ZM38.4124 21.0169C38.4124 20.6013 38.2788 20.2598 38.0116 19.963C37.7444 19.6661 37.4178 19.5325 37.0318 19.5325C36.6459 19.5325 36.3193 19.6809 36.0521 19.963C35.7849 20.2598 35.6513 20.6013 35.6513 21.0169C35.6513 21.4326 35.7849 21.774 36.0521 22.0709C36.3193 22.3529 36.6459 22.5014 37.0318 22.5014C37.4178 22.5014 37.7444 22.3529 38.0116 22.0709C38.2788 21.7888 38.4124 21.4326 38.4124 21.0169Z" fill="#54C0EB"/>
<path d="M44.0681 20.2751C44.0681 21.0173 43.7712 21.4923 43.1923 21.715L44.365 23.3627H43.1032L42.079 21.8931H41.3664V23.3627H40.3422V18.7461H42.0938C42.8063 18.7461 43.3259 18.8648 43.6228 19.1024C43.9197 19.3399 44.0681 19.7407 44.0681 20.2751ZM42.836 20.8243C42.9696 20.7056 43.029 20.5274 43.029 20.2751C43.029 20.0227 42.9696 19.8594 42.836 19.7704C42.7024 19.6813 42.4798 19.6368 42.1383 19.6368H41.3664V21.0025H42.1235C42.4649 20.9876 42.7024 20.9282 42.836 20.8243Z" fill="#54C0EB"/>
<path d="M46.9923 19.6368V23.3627H45.9681V19.6368H44.6617V18.7461H48.2986V19.6368H46.9923Z" fill="#54C0EB"/>
</g>
<defs>
<clipPath id="clip0_365_13923">
<rect width="71.58" height="71.58" fill="white" transform="translate(0.558838 0.798828)"/>
</clipPath>
</defs>
</svg>
